<svg width="14" height="24" viewBox="0 0 14 24" fill="none" xmlns="http://www.w3.org/2000/svg">
    <path
        d="M3.98047 12.625L3.10547 11.75L3.98047 10.875H12.375C12.8398 10.875 13.25 11.2852 13.25 11.75C13.25 12.2422 12.8398 12.625 12.375 12.625H3.98047Z"
        fill="white" fill-opacity="0.5" />
    <path
        d="M1.24609 12.3789C0.890625 12.0508 0.890625 11.4766 1.24609 11.1484L5.62109 6.77344C5.94922 6.41797 6.52344 6.41797 6.85156 6.77344C7.20703 7.10156 7.20703 7.67578 6.85156 8.00391L3.10547 11.75L6.85156 15.5234C7.20703 15.8516 7.20703 16.4258 6.85156 16.7539C6.52344 17.1094 5.94922 17.1094 5.62109 16.7539L1.24609 12.3789Z"
        fill="white" fill-opacity="0.9" />
</svg>
    