<svg width="13" height="24" viewBox="0 0 13 24" fill="none" xmlns="http://www.w3.org/2000/svg">
    <path
        d="M9.24219 10.875L10.1172 11.75L9.24219 12.625H0.875C0.382812 12.625 0 12.2422 0 11.75C0 11.2852 0.382812 10.875 0.875 10.875H9.24219Z"
        fill="white" fill-opacity="0.5" />
    <path
        d="M11.9766 11.1484C12.332 11.4766 12.332 12.0508 11.9766 12.3789L7.60156 16.7539C7.27344 17.1094 6.69922 17.1094 6.37109 16.7539C6.01562 16.4258 6.01562 15.8516 6.37109 15.5234L10.1172 11.75L6.37109 8.00391C6.01562 7.67578 6.01562 7.10156 6.37109 6.77344C6.69922 6.41797 7.27344 6.41797 7.60156 6.77344L11.9766 11.1484Z"
        fill="white" fill-opacity="0.9" />
</svg>
    