<svg xmlns="http://www.w3.org/2000/svg" width="13" height="24" fill="none">
    <path fill="#fff" fill-opacity=".9"
        d="M5 6.3v1H3.7v-1c0-.8.7-1.5 1.5-1.5H7c.8 0 1.5.7 1.5 1.5v1H7.2v-1c0-.1 0-.2-.2-.2H5.2S5 6 5 6.3Zm4.6 9v3.4h-7v-3.4h7Z" />
    <path fill="#fff" fill-opacity=".5"
        d="M0 10.9c0-2 1.6-3.5 3.5-3.5h5.3c1.9 0 3.4 1.6 3.4 3.5V17c0 1-.7 1.8-1.7 1.8h-.9v-4.9c0-.7-.6-1.3-1.3-1.3H4c-.7 0-1.3.6-1.3 1.3v4.8h-.9C.8 18.8 0 18 0 17v-6.1Zm4-1.3c-.3 0-.5.2-.5.4s.2.4.4.4h4.4c.2 0 .4-.2.4-.4s-.2-.4-.4-.4H4Z" />
</svg>