<svg xmlns="http://www.w3.org/2000/svg" width="18" height="24" fill="none">
    <path fill="#fff" fill-opacity=".9"
        d="M5.3 8.7c.3 0 .6.3.6.6v1h.9c.3 0 .6.2.6.6 0 .4-.3.6-.6.6h-.9v1c0 .3-.3.6-.7.6a.6.6 0 0 1-.6-.7v-.9h-.9a.6.6 0 0 1-.6-.6c0-.4.2-.7.6-.7h.9v-.9c0-.3.3-.6.7-.6Z" />
    <path fill="#fff" fill-opacity=".5"
        d="M0 14.9v-.6l1-5.2a3.4 3.4 0 0 1 2.4-2.8 21.4 21.4 0 0 1 10.7 0c1.3.3 2.2 1.5 2.4 2.8l1 5.2v.6a3 3 0 0 1-3 3 3 3 0 0 1-2.8-2.2l-.1-.4H5.9l-.1.4a3 3 0 0 1-2.9 2.2 3 3 0 0 1-2.9-3ZM11.8 11c-.4 0-.8.2-1 .5v1.1c.2.4.6.6 1 .6a1 1 0 0 0 1-.6v-1a1 1 0 0 0-1-.6Zm.7-1.5c0 .4.2.7.5 1h1.1c.3-.3.6-.6.6-1a1 1 0 0 0-1.7-1 1 1 0 0 0-.5 1Zm-6.6-.3c0-.3-.3-.6-.7-.6-.3 0-.6.3-.6.6v1h-.9c-.4 0-.6.2-.6.6 0 .4.2.6.6.6h.9v1c0 .3.3.6.7.6.3 0 .6-.3.6-.7v-.9h.9c.3 0 .6-.2.6-.6 0-.4-.3-.7-.6-.7h-.9v-.9Z" />
</svg>