<svg xmlns="http://www.w3.org/2000/svg" width="40" height="40" fill="none">
    <path fill="#fff"
        d="m25.2 15.9 9.4 13.7c.4.6.5 1.3.2 2-.3.6-1 .9-1.7.9H7c-.8 0-1.4-.4-1.7-1a2 2 0 0 1 .2-2l5-6.3a2 2 0 0 1 1.5-.7c.5 0 1 .3 1.4.7l2 2.7 6.9-10c.3-.6 1-.9 1.6-.9.5 0 1.1.3 1.4.9Z" />
    <path fill="#fff"
        d="M0 7.5a5 5 0 0 1 5-5h30a5 5 0 0 1 5 5v25a5 5 0 0 1-5 5H5a5 5 0 0 1-5-5v-25Zm25.2 8.4c-.3-.6-.9-.9-1.4-.9-.7 0-1.3.3-1.6.9l-6.8 10-2.1-2.7a2 2 0 0 0-1.4-.7 2 2 0 0 0-1.5.7l-5 6.3a2 2 0 0 0-.2 2c.3.6.9 1 1.7 1H33c.6 0 1.4-.3 1.7-1a2 2 0 0 0-.2-1.9L25.2 16ZM8.8 15c1.3 0 2.4-.7 3.2-1.9.7-1 .7-2.6 0-3.7-.8-1.1-2-1.9-3.3-1.9a4 4 0 0 0-3.2 1.9 3.6 3.6 0 0 0 0 3.7A3.7 3.7 0 0 0 8.8 15Z"
        opacity=".5" />
</svg>