<svg xmlns="http://www.w3.org/2000/svg" width="18" height="24" fill="none">
    <path fill="#fff" fill-opacity=".9"
        d="m1.8 11 .8-.1c1 0 1.8.8 1.8 1.7 0 1-.8 1.8-1.8 1.8h-.2c-.4-.8-.6-1.6-.6-2.7v-.6Zm8.4 3.4c-.4-.8-.6-1.6-.6-2.7v-.6l.9-.2c1 0 1.8.8 1.8 1.7 0 1-.8 1.8-1.8 1.8h-.3Z" />
    <path fill="#fff" fill-opacity=".5"
        d="M1.8 11.8c0 1.2.3 2.4 1 3.1.5.8 1.2 1.2 2 1.2s1.5-.4 2-1.2c.7-.7 1-1.9 1-3.2 0-1.2-.3-2.3-1-3.1-.5-.8-1.2-1.2-2-1.2s-1.5.4-2 1.2c-.7.8-1 1.9-1 3.2Zm7-3.6.4-.7c.8-1 2-1.9 3.5-1.9 1.4 0 2.6.8 3.5 2a7 7 0 0 1 1.3 4.2 7 7 0 0 1-1.3 4.2c-.9 1.1-2 1.9-3.5 1.9s-2.7-.8-3.5-2c-.2-.1-.3-.3-.4-.6l-.5.7c-.9 1.1-2 1.9-3.5 1.9-1.4 0-2.6-.8-3.5-2A6.3 6.3 0 0 1 0 11.8c0-1.6.5-3 1.3-4.2.9-1 2-1.9 3.5-1.9 1.4 0 2.6.8 3.5 2l.4.6Zm.8 3.6a5 5 0 0 0 1 3.1c.6.8 1.3 1.2 2 1.2.8 0 1.6-.4 2.2-1.2.5-.7 1-1.9 1-3.2a6 6 0 0 0-1-3.1 2.7 2.7 0 0 0-2.1-1.2c-.8 0-1.5.4-2.1 1.2-.6.8-1 1.9-1 3.2Z" />
</svg>