<svg xmlns="http://www.w3.org/2000/svg" width="16" height="24" fill="none">
    <path fill="#fff" fill-opacity=".9" fill-rule="evenodd"
        d="M6 6.8a.6.6 0 0 0-.3 1.3L12 9.7a.6.6 0 1 0 .4-1.2L6 6.8Zm-.7 2.7a.6.6 0 0 0-.3 1.3l6.2 1.6a.6.6 0 0 0 .3-1.2L5.3 9.5Zm-1.5 3.2a.6.6 0 0 1 .8-.5l4.2 1.1a.6.6 0 1 1-.4 1.3l-4.1-1.2a.6.6 0 0 1-.5-.7Zm6.3 7.9L2 18.3a2.4 2.4 0 0 1-1.7-2.8L3 5a2.4 2.4 0 0 1 2.9-1.7L14 5.7a2.4 2.4 0 0 1 1.7 2.8L13 19a2.4 2.4 0 0 1-2.9 1.7Z"
        clip-rule="evenodd" />
</svg>