<svg width="72" height="72" viewBox="0 0 72 72" fill="none" xmlns="http://www.w3.org/2000/svg">
    <path
        d="M44.3777 10.7911C51.2671 17.9524 46.2554 33.2652 36.4651 34.9675M36.4651 34.9675C26.4271 36.7128 16.4324 22.4325 21.5095 13.599M36.4651 34.9675C46.2554 33.2652 51.818 28.5374 55.0761 19.1496M36.4651 34.9675C26.4271 36.7128 18.3912 33.035 13.1509 24.2974M36.4651 34.9675C46.2554 33.2652 37.6909 19.3498 37.6909 19.3498M36.4651 34.9675C26.4271 36.7128 30.0682 20.2858 30.0682 20.2858M36.4651 34.9675C26.4271 36.7128 15.7502 52.4373 17.8307 62.4111M36.4651 34.9675C46.2554 33.2652 61.0295 47.4082 59.7559 57.2634M36.4651 34.9675C26.4271 36.7128 21.4311 47.8018 26.7742 56.477M36.4651 34.9675C46.2554 33.2652 54.5397 45.0224 49.6425 53.6691M36.4651 34.9675C46.2554 33.2652 42.2706 48.771 42.2706 48.771C42.2706 48.771 41.2275 53.5982 38.806 54.0324C36.261 54.4888 33.695 49.8239 33.695 49.8239C33.695 49.8239 26.4271 36.7128 36.4651 34.9675ZM32.1722 17.358C32.1722 17.358 32.9183 19.1551 33.8344 19.0396C34.7482 18.9244 35.0308 17.007 35.0308 17.007"
        stroke="white" stroke-width="2.30542" stroke-linecap="round" />
    <path
        d="M32.1722 17.358C32.1722 17.358 32.9183 19.1551 33.8344 19.0396C34.7482 18.9243 35.0308 17.007 35.0308 17.007"
        stroke="#EF4444" stroke-width="2.30542" stroke-linecap="round" />
</svg>
    