<svg xmlns="http://www.w3.org/2000/svg" width="192" height="64" fill="none">
  <path fill="#fff" fill-rule="evenodd"
    d="M46.7 15c-8.8-8.9-23-8.9-32-.1a22.6 22.6 0 0 0 25 36.8 4.2 4.2 0 0 0 1.3-6.9 4.3 4.3 0 0 0-4.6-1A14.2 14.2 0 0 1 20.7 21a14.2 14.2 0 0 1 23 15.6 4.3 4.3 0 0 0 7 4.7l.8-1.3c3.6-8.3 2-18.2-4.8-25Zm0 39.2a5.2 5.2 0 1 0 7.3-7.3 5.2 5.2 0 0 0-7.3 7.3Zm9.7-33.5c0-2.3 1.4-4 3.7-4 2.2 0 3.8 1.7 3.8 4v14.2c0 3.3 2 5.2 5.3 5.2 2.1 0 4-.5 5.5-1.4V20.6a3.8 3.8 0 1 1 7.5 0v20.9a3 3 0 0 1-1.3 2.6c-3 2.1-7 3.2-11.8 3.2-8 0-12.7-4.4-12.7-12.3V20.7Zm36.3.3v22c0 2.2-1.6 3.8-3.7 3.8-2 0-3.7-1.7-3.7-3.7V21c0-2.2 1.5-3.8 3.7-3.8 2 0 3.7 1.6 3.7 3.7ZM116 40h-11l13.2-15c1.4-1.6 1.8-3.2 1.1-5-.7-1.8-2-2.7-4.2-2.7H100c-2 0-3.6 1.5-3.6 3.5s1.6 3.4 3.6 3.4h10.4L96.9 39.5c-.9 1-1.3 2-1.3 3.1 0 2.5 2 4.2 4.7 4.2H116c2.1 0 3.7-1.4 3.7-3.4s-1.6-3.5-3.7-3.5Zm14.1-19v22c0 2.2-1.7 3.8-3.7 3.8s-3.8-1.7-3.8-3.7V21c0-2.2 1.6-3.8 3.8-3.8 2 0 3.7 1.6 3.7 3.7Zm23 19h-10.9l13.2-15c1.4-1.6 1.7-3.2 1-5-.6-1.8-2-2.7-4.1-2.7H137c-2 0-3.6 1.5-3.6 3.5s1.5 3.4 3.6 3.4h10.3L134 39.5c-.8 1-1.2 2-1.2 3.1 0 2.5 1.9 4.2 4.6 4.2h15.8c2 0 3.7-1.4 3.7-3.4s-1.7-3.5-3.7-3.5Zm16.1 0h11c2 0 3.6 1.3 3.6 3.4 0 2-1.6 3.4-3.6 3.4h-15.8c-2.7 0-4.6-1.7-4.6-4.2 0-1.1.3-2.2 1.2-3.1l13.4-15.3h-10.3c-2.1 0-3.7-1.3-3.7-3.4 0-2 1.6-3.5 3.7-3.5h15.2c2 0 3.4 1 4.1 2.8.7 1.7.3 3.3-1 4.9l-13.2 15Z"
    clip-rule="evenodd" />
</svg>