<svg xmlns="http://www.w3.org/2000/svg" width="41" height="41" fill="none">
    <mask id="a" width="45.8" height="45.7" x="-2.8" y="-1.8" fill="#000" maskUnits="userSpaceOnUse">
        <path fill="#fff" d="M-2.8-1.8H43v45.7H-2.8z" />
        <path
            d="M23.8 8A4 4 0 0 0 20 3.7a1 1 0 0 0-1 .9l-2 21.8a6 6 0 0 0-1.9 1 6.1 6.1 0 1 0 6.9-.6l.3-3 3 .2a6.1 6.1 0 1 0 .4-5l-3-.2 1-10.8Zm5.8 12c1-1 2.7-.8 3.6.3 1 1.1.8 2.8-.3 3.7-1.1 1-2.7.8-3.7-.3-.9-1.1-.8-2.8.4-3.7ZM17.2 33.8c-1-1-.8-2.7.3-3.7 1-.9 2.8-.8 3.7.3 1 1.2.7 2.8-.3 3.7-1.2 1-2.8.8-3.7-.3Zm-1.5-10.6.5-5-12.1-1a1 1 0 0 0-1 .9 4 4 0 0 0 3.5 4.3l9.1.8Z" />
    </mask>
    <path fill="#fff"
        d="M23.8 8A4 4 0 0 0 20 3.7a1 1 0 0 0-1 .9l-2 21.8a6 6 0 0 0-1.9 1 6.1 6.1 0 1 0 6.9-.6l.3-3 3 .2a6.1 6.1 0 1 0 .4-5l-3-.2 1-10.8Zm5.8 12c1-1 2.7-.8 3.6.3 1 1.1.8 2.8-.3 3.7-1.1 1-2.7.8-3.7-.3-.9-1.1-.8-2.8.4-3.7ZM17.2 33.8c-1-1-.8-2.7.3-3.7 1-.9 2.8-.8 3.7.3 1 1.2.7 2.8-.3 3.7-1.2 1-2.8.8-3.7-.3Zm-1.5-10.6.5-5-12.1-1a1 1 0 0 0-1 .9 4 4 0 0 0 3.5 4.3l9.1.8Z" />
    <path fill="#000"
        d="m23.8 8-2-.2 2 .2Zm-6.6 18.4 2 .1-.1 1.3-1.3.5-.6-2Zm5 .4-1 1.7L20 28l.1-1.3 2 .2Zm.2-3-2-.2.2-2 2 .2-.2 2Zm3 .2.2-2 1.3.1.4 1.3-1.9.6Zm.5-5 1.7 1-.6 1.2-1.3-.1.2-2Zm-3-.2-.2 2-2-.2.2-2 2 .2Zm-7.2 4.4 2 .1-.2 2-2-.1.2-2Zm.5-5 .1-2 2 .2-.2 2-2-.2Zm5.6-10.4A2 2 0 0 0 20 5.7l.3-4a6 6 0 0 1 5.5 6.5l-4-.4ZM20 5.7c.5 0 1-.4 1-1l-3.9-.3a3 3 0 0 1 3.2-2.7l-.3 4Zm1-1-1.8 21.8-4-.3 2-21.8 3.9.3Zm-3.2 23.6a4 4 0 0 0-1.3.7L14 25.9a8 8 0 0 1 2.6-1.4l1.3 3.8Zm-1.3.7c-1.7 1.4-2 4-.5 5.8l-3 2.5A8.2 8.2 0 0 1 14 26l2.5 3Zm-.5 5.8c1.5 1.7 4 2 5.8.5l2.6 3a8.1 8.1 0 0 1-11.5-1l3.1-2.5Zm5.8.5c1.7-1.5 2-4 .5-5.8l3.1-2.6a8.1 8.1 0 0 1-1 11.4l-2.6-3Zm.5-5.8a4 4 0 0 0-1.1-1L23 25a8 8 0 0 1 2.3 1.9l-3 2.6Zm-2.2-3 .3-3 4 .5-.3 3-4-.4Zm2.5-4.7 3 .2-.3 4-3-.3.3-4Zm4.7 1.6.8 1.3-3 2.5a8 8 0 0 1-1.6-2.5l3.8-1.3Zm.8 1.3c1.4 1.7 4 2 5.8.5l2.6 3a8.1 8.1 0 0 1-11.5-1l3-2.5Zm5.8.5c1.7-1.5 2-4.1.5-5.9l3-2.5a8.1 8.1 0 0 1-1 11.4l-2.5-3Zm.5-5.9a4.2 4.2 0 0 0-5.8-.5l-2.6-3a8.2 8.2 0 0 1 11.5 1l-3.1 2.5Zm-5.8-.5a4 4 0 0 0-1 1.3l-3.5-2a8 8 0 0 1 2-2.3l2.5 3Zm-3 2.3-3-.3.4-4 3 .3-.3 4ZM21 18.7l.9-10.9 4 .4-1 10.8-4-.3Zm7.4-.2a4.6 4.6 0 0 1 6.5.5l-3 2.6-.5-.2-.5.1-2.5-3Zm6.5.5c1.7 2 1.3 5-.6 6.5l-2.6-3c.3-.2.3-.6.1-.9l3-2.6Zm-.6 6.5a4.6 4.6 0 0 1-6.5-.5l3-2.6c.2.2.3.2.5.2l.4-.1 2.6 3Zm-6.5-.5c-1.6-2-1.4-4.9.6-6.5l2.5 3c-.2.2-.3.6 0 .9L27.7 25ZM15.7 35c-1.7-2-1.5-4.8.5-6.5l2.6 3c-.3.3-.3.7-.1 1l-3 2.5Zm.5-6.5c2-1.6 4.9-1.4 6.5.6l-3 2.5-.5-.2-.4.1-2.6-3Zm6.5.6c1.7 2 1.4 4.9-.6 6.5l-2.5-3.1c.2-.2.3-.6 0-.9l3.1-2.5Zm-.6 6.5a4.6 4.6 0 0 1-6.5-.6l3-2.6.5.3c.2 0 .3 0 .5-.2l2.5 3ZM13.7 23l.5-5 4 .4-.5 5-4-.4Zm2.3-2.8-12.1-1 .3-4 12.1 1-.3 4Zm-12.1-1c.5 0 1-.4 1.1-1L1 18a3 3 0 0 1 3.2-2.7l-.3 4Zm1.1-1a2 2 0 0 0 1.8 2.2l-.3 4A6 6 0 0 1 1 17.9l4 .3Zm1.8 2.2 9.1.8-.3 4-9.1-.8.3-4Z"
        mask="url(#a)" />
</svg>