<svg xmlns="http://www.w3.org/2000/svg" viewBox="0 0 496 512">
    <path fill="#1ed760" d="M248 8a248 248 0 1 0 .2 496.2A248 248 0 0 0 248 8Z"/>
    <path d="M406.6 231.1a23 23 0 0 1-12.9-3.9c-71.2-42.5-198.5-52.7-280.9-29.7-3.6 1-8.1 2.6-12.9 2.6a23 23 0 0 1-23.3-23.6c0-13.6 8.4-21.3 17.4-23.9a419.1 419.1 0 0 1 117.5-15.2c73 0 149.5 15.2 205.4 47.8a23.5 23.5 0 0 1 12.9 22.6c0 13.6-11 23.3-23.2 23.3zm-31 76.2c-5.2 0-8.7-2.3-12.3-4.2-62.5-37-155.7-51.9-238.6-29.4-4.8 1.3-7.4 2.6-11.9 2.6-10.7 0-19.4-8.7-19.4-19.4s5.2-17.8 15.5-20.7a336.4 336.4 0 0 1 97.8-13.6c64.9 0 127.6 16.1 177 45.5 8.1 4.8 11.3 11 11.3 19.7a19.4 19.4 0 0 1-19.4 19.5zm-26.9 65.6c-4.2 0-6.8-1.3-10.7-3.6-62.4-37.6-135-39.2-206.7-24.5-3.9 1-9 2.6-11.9 2.6-9.7 0-15.8-7.7-15.8-15.8 0-10.3 6.1-15.2 13.6-16.8 81.9-18.1 165.6-16.5 237 26.2 6.1 3.9 9.7 7.4 9.7 16.5s-7.1 15.4-15.2 15.4z"/>
  </svg>