<svg width="24" height="24" viewBox="0 0 24 24" fill="none" xmlns="http://www.w3.org/2000/svg">
<path d="M11.3075 2.62322C11.5637 2.00725 12.4363 2.00725 12.6924 2.62322L14.9981 8.16661C15.1061 8.42628 15.3503 8.60371 15.6306 8.62619L21.6152 9.10597C22.2802 9.15928 22.5498 9.98916 22.0432 10.4232L17.4836 14.3289C17.27 14.5119 17.1767 14.799 17.242 15.0726L18.635 20.9125C18.7898 21.5614 18.0838 22.0743 17.5145 21.7265L12.3909 18.5971C12.1509 18.4505 11.849 18.4505 11.609 18.5971L6.4854 21.7265C5.91608 22.0743 5.21014 21.5614 5.36493 20.9125L6.75796 15.0726C6.82322 14.799 6.72994 14.5119 6.51635 14.3289L1.95675 10.4232C1.45009 9.98916 1.71974 9.15928 2.38473 9.10597L8.36929 8.62619C8.64963 8.60371 8.89384 8.42629 9.00184 8.16661L11.3075 2.62322Z" fill="#FACC15"/>
</svg>
