<svg width="24" height="24" viewBox="0 0 24 24" fill="none" xmlns="http://www.w3.org/2000/svg">
<path d="M11.3075 2.62322C11.5637 2.00725 12.4363 2.00725 12.6924 2.62322L14.9981 8.16661C15.1061 8.42628 15.3503 8.60371 15.6306 8.62619L21.6152 9.10597C22.2802 9.15928 22.5498 9.98916 22.0432 10.4232L17.4836 14.3289C17.27 14.5119 17.1767 14.799 17.242 15.0726L18.635 20.9125C18.7898 21.5614 18.0838 22.0743 17.5145 21.7265L12.3909 18.5971C12.1509 18.4505 11.849 18.4505 11.609 18.5971L6.4854 21.7265C5.91608 22.0743 5.21014 21.5614 5.36493 20.9125L6.75796 15.0726C6.82322 14.799 6.72994 14.5119 6.51635 14.3289L1.95675 10.4232C1.45009 9.98916 1.71974 9.15928 2.38473 9.10597L8.36929 8.62619C8.64963 8.60371 8.89384 8.42629 9.00184 8.16661L11.3075 2.62322Z" fill="white" fill-opacity="0.1"/>
<path d="M11.979 18.4883C11.8506 18.4919 11.7227 18.5272 11.6089 18.5967L6.48586 21.7266C5.91653 22.0743 5.20997 21.561 5.36476 20.9121L6.75832 15.0723C6.82341 14.7988 6.72963 14.512 6.51613 14.3291L1.95656 10.4229C1.45033 9.98878 1.72042 9.15975 2.38527 9.10645L8.36965 8.62598C8.64969 8.60341 8.89342 8.42632 9.00148 8.16699L11.3071 2.62305C11.4321 2.32272 11.7039 2.16957 11.979 2.16211V18.4883Z" fill="#FACC15"/>
</svg>
